<svg width="6" height="22" viewBox="0 0 6 22" fill="none" xmlns="http://www.w3.org/2000/svg">
<path d="M5.04289e-05 10.601C5.03649e-05 12.0647 1.1866 13.2512 2.65029 13.2512C4.11398 13.2512 5.30054 12.0647 5.30054 10.601C5.30054 9.13728 4.11398 7.95073 2.65029 7.95073C1.1866 7.95073 5.04929e-05 9.13728 5.04289e-05 10.601Z" fill="#D2D7E8"/>
<path d="M5.04289e-05 18.5517C5.03649e-05 20.0154 1.1866 21.2019 2.65029 21.2019C4.11398 21.2019 5.30054 20.0154 5.30054 18.5517C5.30054 17.088 4.11398 15.9015 2.65029 15.9015C1.1866 15.9015 5.04929e-05 17.088 5.04289e-05 18.5517Z" fill="#D2D7E8"/>
<path d="M5.04289e-05 2.65024C5.03649e-05 4.11393 1.1866 5.30049 2.65029 5.30049C4.11398 5.30049 5.30054 4.11393 5.30054 2.65024C5.30054 1.18655 4.11398 -5.18659e-08 2.65029 -1.15846e-07C1.1866 -1.79826e-07 5.04929e-05 1.18655 5.04289e-05 2.65024Z" fill="#D2D7E8"/>
</svg>
