<svg width="17" height="15" viewBox="0 0 17 15" fill="none" xmlns="http://www.w3.org/2000/svg">
<path d="M16.2628 12.9141L12.8305 9.81694C13.7576 8.55298 14.1315 7.02337 13.8795 5.52477C13.6276 4.02617 12.7679 2.6654 11.4671 1.70638C10.1663 0.747365 8.51708 0.258458 6.83941 0.334485C5.16174 0.410512 3.57515 1.04605 2.38737 2.11784C1.19958 3.18964 0.495257 4.62128 0.411002 6.13512C0.326747 7.64895 0.868567 9.13707 1.93137 10.3109C2.99418 11.4846 4.50222 12.2604 6.163 12.4877C7.82379 12.715 9.51895 12.3777 10.9197 11.5411L14.352 14.6383C14.6069 14.8604 14.9482 14.9833 15.3026 14.9805C15.6569 14.9777 15.9958 14.8495 16.2463 14.6234C16.4969 14.3973 16.639 14.0915 16.6421 13.7718C16.6452 13.4521 16.509 13.1441 16.2628 12.9141ZM3.14557 6.46006C3.14557 5.73657 3.38333 5.02932 3.82879 4.42776C4.27424 3.82619 4.90738 3.35733 5.64814 3.08046C6.38891 2.80359 7.20402 2.73115 7.99041 2.8723C8.7768 3.01344 9.49914 3.36184 10.0661 3.87343C10.6331 4.38502 11.0192 5.03682 11.1756 5.74641C11.332 6.45601 11.2517 7.19152 10.9449 7.85994C10.6381 8.52837 10.1184 9.09968 9.45178 9.50163C8.78511 9.90358 8.00132 10.1181 7.19952 10.1181C6.12435 10.1181 5.09321 9.73272 4.33295 9.0467C3.57269 8.36068 3.14557 7.43024 3.14557 6.46006Z" fill="#D2D7E8"/>
</svg>
